<svg class="shaker" width="80px" height="80px" viewBox="0 0 32 32" fill="none" xmlns="http://www.w3.org/2000/svg">
<path d="M6.38487 16.0181C6.55606 15.9113 6.60789 15.6856 6.5006 15.5144C5.90511 14.5629 5.72842 13.3943 6.01427 12.3084C6.06569 12.1133 5.94969 11.9136 5.75462 11.8622C5.55876 11.8106 5.35953 11.9275 5.30823 12.1223C4.97065 13.4028 5.17968 14.7806 5.8812 15.9023C5.96947 16.0438 6.13872 16.1039 6.29122 16.0602C6.32348 16.0505 6.3551 16.0365 6.38487 16.0181ZM8.0794 16.3408C8.17585 16.4486 8.32191 16.4853 8.45233 16.4484C8.50397 16.4336 8.55278 16.4077 8.59527 16.3694C8.74585 16.2352 8.75799 16.0038 8.62367 15.8534C7.46763 14.5605 7.21781 12.9143 7.93922 11.3366C8.02313 11.1529 7.94265 10.9365 7.75869 10.8525C7.57539 10.7688 7.35856 10.849 7.27453 11.033C6.42707 12.8871 6.72028 14.8212 8.0794 16.3408ZM24.8186 14.0218C24.6508 14.133 24.6046 14.3601 24.716 14.5281C25.3363 15.4633 25.5441 16.6274 25.286 17.7211C25.2395 17.9162 25.3611 18.1137 25.5581 18.1601C25.6211 18.1747 25.6839 18.1719 25.7417 18.1559C25.8651 18.1206 25.9656 18.0216 25.9973 17.8888C26.3009 16.599 26.0561 15.227 25.325 14.1244C25.2136 13.9562 24.9884 13.9087 24.8186 14.0218ZM23.1181 13.7429C22.979 13.5964 22.7475 13.5886 22.601 13.7276C22.4541 13.8656 22.4475 14.0976 22.5854 14.2441C23.775 15.5061 24.0673 17.1457 23.3875 18.7422C23.3087 18.9279 23.3951 19.1424 23.5808 19.2218C23.6608 19.2563 23.7469 19.2592 23.8246 19.2373C23.9265 19.2082 24.0153 19.135 24.0607 19.029C24.8593 17.1531 24.5153 15.2269 23.1181 13.7429ZM15.4953 4.72524C15.2771 4.21869 14.3492 3.87248 12.8265 4.30837C11.3045 4.74428 10.7004 5.52907 10.7829 6.07371L11.1532 8.53018C11.0941 8.7895 10.9259 8.98422 10.7108 9.22427C10.3111 9.67122 9.81399 10.227 9.95389 11.4026C10.0398 12.1287 9.87584 12.3406 9.71728 12.5459C9.62119 12.6707 9.50085 12.826 9.46846 13.0535C9.39871 13.5495 9.69862 13.8926 9.95633 14.0686C11.4591 20.3066 14.8268 26.4892 15.4927 27.6723C15.7772 28.1809 16.3262 28.4355 16.828 28.2919L16.8291 28.2916L22.1182 26.7787C22.6202 26.6349 22.9516 26.1282 22.924 25.547C22.8772 24.5205 22.5742 19.13 21.2027 13.7347C20.9638 12.7989 20.704 11.9052 20.4282 11.0746C20.5532 10.7886 20.6246 10.3369 20.303 9.95258C20.1556 9.77747 19.9717 9.70896 19.8236 9.65386C19.5807 9.56364 19.3291 9.47007 19.0185 8.80906C18.5156 7.73696 17.7996 7.52847 17.2239 7.36081C16.9152 7.27048 16.6691 7.19484 16.4825 7.00642L15.4953 4.72524ZM20.4926 13.9148C21.8472 19.2408 22.1468 24.5666 22.1931 25.5804C22.2031 25.7846 22.1111 26.0197 21.9163 26.0755L16.6275 27.5894C16.4329 27.6452 16.2301 27.4939 16.1299 27.315C15.7315 26.6058 12.2523 20.3048 10.7143 14.0881L19.7926 11.4904C20.0408 12.2529 20.2764 13.0644 20.4928 13.9151L20.4926 13.9148ZM19.7776 10.7343L10.3275 13.4384C10.1264 13.3789 10.0571 12.9912 10.305 12.92C10.3067 12.9192 19.5167 10.2837 19.5167 10.2837C19.5167 10.2837 19.5175 10.2839 19.5225 10.2823C19.7703 10.2114 19.9167 10.5774 19.7775 10.734L19.7776 10.7343ZM18.3556 9.11948C18.482 9.38816 18.6099 9.58833 18.7365 9.74747L10.6887 12.0501C10.7114 11.8478 10.7143 11.611 10.6794 11.3161C10.5787 10.4681 10.8917 10.1179 11.2556 9.71181C11.4667 9.47535 11.6947 9.20748 11.8174 8.84783L16.084 7.62659C16.3783 7.8669 16.7143 7.97379 17.0183 8.06232C17.5415 8.21482 17.9927 8.34632 18.3556 9.11948ZM15.6752 6.98335L11.8247 8.08512L11.5062 5.97279C11.5134 5.83538 11.9014 5.33326 13.0294 5.01068C14.1561 4.68828 14.7504 4.90971 14.8246 5.015L15.6752 6.98335Z" fill="black"/>
</svg>
