<svg width="32" height="32" viewBox="0 0 32 32" fill="none" xmlns="http://www.w3.org/2000/svg">
<rect width="32" height="32" rx="16" fill="black"/>
<path d="M12.7073 6.71827L13.5738 6.48207L14.2824 9.0818L16.0156 8.6094L15.0708 5.14309L11.6045 6.08789L12.5493 9.5542L13.4159 9.318L12.7073 6.71827Z" fill="white" fill-opacity="0.9"/>
<path d="M11.5949 12.8361L12.6282 11.0215L13.4061 11.4678L12.5565 12.9593L12.8619 14.0799L19.7725 12.1963L19.3555 10.6664L16.5118 9.36122L12.5054 10.4532L10.7173 13.0209L11.1343 14.5508L11.9981 14.3153L11.5949 12.8361Z" fill="white" fill-opacity="0.9"/>
<path d="M20.4588 12.9546L10.9265 15.5528C10.6872 15.618 10.5469 15.868 10.6131 16.1111C10.6794 16.3541 10.9271 16.4983 11.1664 16.4331L20.6987 13.8349C20.938 13.7697 21.0783 13.5197 21.0121 13.2767C20.9458 13.0336 20.6981 12.8894 20.4588 12.9546Z" fill="white" fill-opacity="0.9"/>
<path d="M20.4625 18.1666L21.0334 25.5814L18.9356 26.1533L18.7513 25.4773L20.1059 25.1081L19.5836 18.3252L18.7614 15.3086L13.5827 16.7202L14.4052 19.7377L16.2395 23.5692L15.4113 23.8977L13.5486 19.9971L12.7196 16.9555L11.8565 17.1907L12.6779 20.2043L16.113 27.489C18.2656 27.2863 20.3601 26.4595 21.8411 25.6134L21.309 17.8517L20.4876 14.8382L19.6245 15.0734L20.4625 18.1666ZM16.0265 25.1823L15.719 24.54L16.5471 24.2115L16.8547 24.8538L16.0265 25.1823Z" fill="white" fill-opacity="0.9"/>
</svg>
