<svg width="1080" height="1080" viewBox="0 0 1080 1080" fill="none" xmlns="http://www.w3.org/2000/svg">
<rect width="1080" height="1080" rx="540" fill="black"/>
<g filter="url(#filter0_di_36_11)">
<path d="M238.047 558.106C243.308 554.122 244.328 546.614 240.325 541.354C218.106 512.12 208.888 474.573 214.983 438.348C216.08 431.84 211.71 425.679 205.202 424.582C198.669 423.482 192.524 427.878 191.43 434.378C184.226 477.096 195.117 521.362 221.295 555.829C224.59 560.174 230.282 561.632 235.121 559.758C236.143 559.344 237.132 558.796 238.047 558.106ZM294.208 563.601C297.67 566.826 302.537 567.591 306.677 566.001C308.315 565.367 309.829 564.376 311.1 563.005C315.608 558.187 315.318 550.611 310.496 546.111C269.004 507.413 255.988 454.522 274.816 400.986C277.005 394.752 273.743 387.941 267.5 385.748C261.281 383.566 254.455 386.822 252.262 393.064C230.146 455.978 245.428 518.12 294.208 563.601ZM832.679 438.459C827.54 442.58 826.709 450.116 830.837 455.258C853.815 483.889 864.033 521.195 858.866 557.592C857.928 564.088 862.474 570.162 869.029 571.089C871.126 571.377 873.163 571.101 875 570.409C878.915 568.893 881.895 565.368 882.535 560.947C888.606 518.03 876.564 474.056 849.478 440.301C845.354 435.151 837.874 434.273 832.679 438.459ZM776.452 434.412C771.488 430.049 763.922 430.481 759.559 435.445C755.183 440.377 755.656 447.952 760.583 452.316C803.076 489.906 817.455 542.459 800.04 596.483C798.021 602.766 801.474 609.497 807.757 611.535C810.465 612.421 813.28 612.261 815.748 611.318C818.981 610.066 821.655 607.419 822.821 603.831C843.281 540.351 826.368 478.617 776.452 434.412ZM501.397 163.211C492.786 147.355 461.53 138.825 413.216 157.537C364.921 176.247 347.565 203.604 351.867 221.104L371.208 300.035C370.051 308.659 365.15 315.5 358.852 323.958C347.155 339.703 332.606 359.283 340.647 397.168C345.596 420.568 340.883 427.956 336.325 435.114C333.565 439.465 330.104 444.883 329.723 452.39C328.92 468.755 339.707 479.045 348.625 484.015C416.064 682.788 544.097 874.231 569.294 910.801C580.068 926.528 598.71 933.196 614.634 927.031L614.667 927.018L782.496 862.062C798.424 855.889 807.719 838.4 805.099 819.548C800.532 786.244 774.691 611.526 714.027 439.819C703.472 410.04 692.358 381.692 680.915 355.45C684.138 345.761 685.125 330.836 673.509 319.268C668.188 314 661.996 312.312 657.007 310.956C648.826 308.736 640.353 306.433 628.276 285.819C608.716 252.381 584.773 247.71 565.52 243.953C555.193 241.925 546.953 240.19 540.315 234.604L501.397 163.211ZM691.427 447.79C751.335 617.291 776.874 789.91 781.386 822.802C782.317 829.422 780.015 837.357 773.835 839.75L606.018 904.74C599.845 907.136 592.788 902.805 588.996 897.274C573.914 875.35 441.899 680.381 373.377 482.404L661.439 370.88C671.784 394.986 681.864 420.726 691.434 447.799L691.427 447.79ZM658.709 346.292L358.851 462.383C352.123 461.042 348.715 448.615 356.582 445.564C356.632 445.531 648.876 332.385 648.876 332.385C648.876 332.385 648.902 332.388 649.059 332.321C656.922 329.276 662.775 340.769 658.707 346.283L658.709 346.292ZM607.599 297.896C612.512 306.274 617.274 312.417 621.868 317.226L366.503 416.085C366.645 409.429 366.038 401.703 364.028 392.201C358.234 364.873 367.394 352.537 378.046 338.227C384.224 329.899 390.858 320.496 393.788 308.416L529.172 255.989C539.472 262.946 550.734 265.433 560.898 267.417C578.396 270.835 593.484 273.782 607.599 297.896ZM513.946 236.244L391.767 283.546L375.132 215.673C374.959 211.175 386.112 193.667 421.905 179.816C457.657 165.975 477.675 171.428 480.404 174.638L513.946 236.244Z" fill="white"/>
</g>
<defs>
<filter id="filter0_di_36_11" x="159.256" y="116.884" width="754.82" height="842.424" filterUnits="userSpaceOnUse" color-interpolation-filters="sRGB">
<feFlood flood-opacity="0" result="BackgroundImageFix"/>
<feColorMatrix in="SourceAlpha" type="matrix" values="0 0 0 0 0 0 0 0 0 0 0 0 0 0 0 0 0 0 127 0" result="hardAlpha"/>
<feOffset/>
<feGaussianBlur stdDeviation="15"/>
<feComposite in2="hardAlpha" operator="out"/>
<feColorMatrix type="matrix" values="0 0 0 0 1 0 0 0 0 1 0 0 0 0 1 0 0 0 1 0"/>
<feBlend mode="normal" in2="BackgroundImageFix" result="effect1_dropShadow_36_11"/>
<feBlend mode="normal" in="SourceGraphic" in2="effect1_dropShadow_36_11" result="shape"/>
<feColorMatrix in="SourceAlpha" type="matrix" values="0 0 0 0 0 0 0 0 0 0 0 0 0 0 0 0 0 0 127 0" result="hardAlpha"/>
<feOffset/>
<feGaussianBlur stdDeviation="10"/>
<feComposite in2="hardAlpha" operator="arithmetic" k2="-1" k3="1"/>
<feColorMatrix type="matrix" values="0 0 0 0 1 0 0 0 0 1 0 0 0 0 1 0 0 0 1 0"/>
<feBlend mode="normal" in2="shape" result="effect2_innerShadow_36_11"/>
</filter>
</defs>
</svg>
