<svg width="498" height="522" viewBox="0 0 498 522" fill="none" xmlns="http://www.w3.org/2000/svg">
<g filter="url(#filter0_d_23_12)">
<path d="M157.119 122.455L172.823 115.857L192.619 162.969L224.028 149.772L197.633 86.9551L134.816 113.35L161.211 176.166L176.915 169.568L157.119 122.455Z" fill="#FF0A54"/>
<path d="M151.419 240.246L166.326 203.558L182.062 210.011L169.803 240.168L178.336 260.475L303.57 207.853L291.921 180.129L235.206 162.672L162.602 193.179L135.378 245.906L147.027 273.631L162.682 267.053L151.419 240.246Z" fill="#FF0A54"/>
<path d="M318.375 220.402L145.629 292.988C141.293 294.81 139.278 299.859 141.129 304.264C142.98 308.669 147.997 310.763 152.333 308.941L325.078 236.356C329.415 234.534 331.43 229.485 329.579 225.08C327.728 220.675 322.711 218.58 318.375 220.402Z" fill="#FF0A54"/>
<path d="M331.433 318.381L360.632 456.364L322.614 472.339L317.467 460.09L342.015 449.775L315.305 323.552L292.335 268.885L198.486 308.319L221.463 363.002L265.491 430.47L250.739 438.708L206.006 370.013L182.845 314.892L167.203 321.465L190.15 376.077L272.479 500.173C312.444 491.001 349.133 472.001 375.339 454.312L346.564 310.354L323.616 255.742L307.975 262.314L331.433 318.381ZM265.504 461.328L258.122 450.018L272.875 441.779L280.256 453.089L265.504 461.328Z" fill="#FF0A54"/>
</g>
<g filter="url(#filter1_d_23_12)">
<path d="M169.119 115.895L184.823 109.296L204.619 156.408L236.028 143.211L209.633 80.3946L146.816 106.789L173.211 169.606L188.915 163.007L169.119 115.895Z" fill="#30E2FF" fill-opacity="0.6"/>
<path d="M163.419 233.685L178.326 196.997L194.062 203.451L181.803 233.608L190.336 253.915L315.57 201.293L303.921 173.568L247.206 156.111L174.602 186.618L147.378 239.346L159.027 267.07L174.682 260.492L163.419 233.685Z" fill="#30E2FF" fill-opacity="0.6"/>
<path d="M330.375 213.842L157.629 286.427C153.293 288.249 151.278 293.299 153.129 297.704C154.98 302.108 159.997 304.203 164.333 302.381L337.078 229.795C341.415 227.973 343.43 222.924 341.579 218.519C339.728 214.114 334.711 212.02 330.375 213.842Z" fill="#30E2FF" fill-opacity="0.6"/>
<path d="M343.433 311.821L372.632 449.804L334.614 465.778L329.467 453.529L354.015 443.214L327.305 316.991L304.335 262.324L210.486 301.758L233.463 356.442L277.491 423.909L262.739 432.147L218.006 363.453L194.845 308.332L179.203 314.904L202.15 369.516L284.479 493.612C324.444 484.44 361.133 465.44 387.339 447.751L358.564 303.793L335.616 249.181L319.975 255.754L343.433 311.821ZM277.504 454.767L270.122 443.457L284.875 435.219L292.256 446.529L277.504 454.767Z" fill="#30E2FF" fill-opacity="0.6"/>
</g>
<g filter="url(#filter2_d_23_12)">
<path d="M183.119 110.895L198.823 104.296L218.619 151.408L250.028 138.211L223.633 75.3946L160.816 101.789L187.211 164.606L202.915 158.007L183.119 110.895Z" fill="#FFFF00" fill-opacity="0.7"/>
<path d="M177.419 228.685L192.326 191.997L208.062 198.451L195.803 228.608L204.336 248.915L329.57 196.293L317.921 168.568L261.206 151.111L188.602 181.618L161.378 234.346L173.027 262.07L188.682 255.492L177.419 228.685Z" fill="#FFFF00" fill-opacity="0.7"/>
<path d="M344.375 208.842L171.629 281.427C167.293 283.249 165.278 288.299 167.129 292.704C168.98 297.108 173.997 299.203 178.333 297.381L351.078 224.795C355.415 222.973 357.43 217.924 355.579 213.519C353.728 209.114 348.711 207.02 344.375 208.842Z" fill="#FFFF00" fill-opacity="0.7"/>
<path d="M357.433 306.821L386.632 444.804L348.614 460.778L343.467 448.529L368.015 438.214L341.305 311.991L318.335 257.324L224.486 296.758L247.463 351.442L291.491 418.909L276.739 427.147L232.006 358.453L208.845 303.332L193.203 309.904L216.15 364.516L298.479 488.612C338.444 479.44 375.133 460.44 401.339 442.751L372.564 298.793L349.616 244.181L333.975 250.754L357.433 306.821ZM291.504 449.767L284.122 438.457L298.875 430.219L306.256 441.529L291.504 449.767Z" fill="#FFFF00" fill-opacity="0.7"/>
</g>
<g filter="url(#filter3_d_23_12)">
<path d="M159.119 114.895L174.823 108.296L194.619 155.409L226.027 142.211L199.633 79.3947L136.816 105.789L163.211 168.606L178.915 162.007L159.119 114.895Z" fill="white" fill-opacity="0.9"/>
<path d="M153.419 232.685L168.326 195.997L184.062 202.451L171.803 232.608L180.336 252.915L305.57 200.293L293.921 172.568L237.206 155.111L164.602 185.618L137.378 238.346L149.027 266.07L164.682 259.492L153.419 232.685Z" fill="white" fill-opacity="0.9"/>
<path d="M320.375 212.842L147.629 285.428C143.293 287.25 141.278 292.299 143.129 296.704C144.98 301.109 149.997 303.203 154.333 301.381L327.078 228.795C331.415 226.973 333.43 221.924 331.579 217.519C329.728 213.114 324.711 211.02 320.375 212.842Z" fill="white" fill-opacity="0.9"/>
<path d="M333.432 310.821L362.632 448.804L324.614 464.778L319.467 452.529L344.015 442.214L317.305 315.991L294.334 261.324L200.485 300.758L223.463 355.442L267.491 422.909L252.739 431.147L208.005 362.453L184.844 307.332L169.203 313.904L192.15 368.516L274.874 496.921C314.839 487.748 352.16 466.989 377.896 447.392L348.563 302.793L325.616 248.181L309.975 254.754L333.432 310.821ZM267.504 453.767L260.122 442.457L274.874 434.219L282.256 445.529L267.504 453.767Z" fill="white" fill-opacity="0.9"/>
</g>
<defs>
<filter id="filter0_d_23_12" x="130.816" y="86.9551" width="248.523" height="421.218" filterUnits="userSpaceOnUse" color-interpolation-filters="sRGB">
<feFlood flood-opacity="0" result="BackgroundImageFix"/>
<feColorMatrix in="SourceAlpha" type="matrix" values="0 0 0 0 0 0 0 0 0 0 0 0 0 0 0 0 0 0 127 0" result="hardAlpha"/>
<feOffset dy="4"/>
<feGaussianBlur stdDeviation="2"/>
<feComposite in2="hardAlpha" operator="out"/>
<feColorMatrix type="matrix" values="0 0 0 0 0 0 0 0 0 0 0 0 0 0 0 0 0 0 0.25 0"/>
<feBlend mode="normal" in2="BackgroundImageFix" result="effect1_dropShadow_23_12"/>
<feBlend mode="normal" in="SourceGraphic" in2="effect1_dropShadow_23_12" result="shape"/>
</filter>
<filter id="filter1_d_23_12" x="142.816" y="80.3945" width="248.523" height="421.218" filterUnits="userSpaceOnUse" color-interpolation-filters="sRGB">
<feFlood flood-opacity="0" result="BackgroundImageFix"/>
<feColorMatrix in="SourceAlpha" type="matrix" values="0 0 0 0 0 0 0 0 0 0 0 0 0 0 0 0 0 0 127 0" result="hardAlpha"/>
<feOffset dy="4"/>
<feGaussianBlur stdDeviation="2"/>
<feComposite in2="hardAlpha" operator="out"/>
<feColorMatrix type="matrix" values="0 0 0 0 0 0 0 0 0 0 0 0 0 0 0 0 0 0 0.25 0"/>
<feBlend mode="normal" in2="BackgroundImageFix" result="effect1_dropShadow_23_12"/>
<feBlend mode="normal" in="SourceGraphic" in2="effect1_dropShadow_23_12" result="shape"/>
</filter>
<filter id="filter2_d_23_12" x="156.816" y="75.3945" width="248.523" height="421.218" filterUnits="userSpaceOnUse" color-interpolation-filters="sRGB">
<feFlood flood-opacity="0" result="BackgroundImageFix"/>
<feColorMatrix in="SourceAlpha" type="matrix" values="0 0 0 0 0 0 0 0 0 0 0 0 0 0 0 0 0 0 127 0" result="hardAlpha"/>
<feOffset dy="4"/>
<feGaussianBlur stdDeviation="2"/>
<feComposite in2="hardAlpha" operator="out"/>
<feColorMatrix type="matrix" values="0 0 0 0 0 0 0 0 0 0 0 0 0 0 0 0 0 0 0.25 0"/>
<feBlend mode="normal" in2="BackgroundImageFix" result="effect1_dropShadow_23_12"/>
<feBlend mode="normal" in="SourceGraphic" in2="effect1_dropShadow_23_12" result="shape"/>
</filter>
<filter id="filter3_d_23_12" x="132.816" y="79.3947" width="249.08" height="425.526" filterUnits="userSpaceOnUse" color-interpolation-filters="sRGB">
<feFlood flood-opacity="0" result="BackgroundImageFix"/>
<feColorMatrix in="SourceAlpha" type="matrix" values="0 0 0 0 0 0 0 0 0 0 0 0 0 0 0 0 0 0 127 0" result="hardAlpha"/>
<feOffset dy="4"/>
<feGaussianBlur stdDeviation="2"/>
<feComposite in2="hardAlpha" operator="out"/>
<feColorMatrix type="matrix" values="0 0 0 0 0 0 0 0 0 0 0 0 0 0 0 0 0 0 0.25 0"/>
<feBlend mode="normal" in2="BackgroundImageFix" result="effect1_dropShadow_23_12"/>
<feBlend mode="normal" in="SourceGraphic" in2="effect1_dropShadow_23_12" result="shape"/>
</filter>
</defs>
</svg>
